<?xml version="1.0" standalone="no"?>
<!DOCTYPE svg PUBLIC "-//W3C//DTD SVG 20010904//EN"
 "http://www.w3.org/TR/2001/REC-SVG-20010904/DTD/svg10.dtd">
<svg version="1.0" xmlns="http://www.w3.org/2000/svg"
 width="617.000000pt" height="164.000000pt" viewBox="0 0 617.000000 164.000000"
 preserveAspectRatio="xMidYMid meet">
<metadata>
Created by potrace 1.16, written by Peter Selinger 2001-2019
</metadata>
<g transform="translate(0.000000,164.000000) scale(0.100000,-0.100000)"
fill="#000000" stroke="none">
<path d="M1833 1235 c-7 -8 -13 -22 -13 -31 0 -13 -6 -15 -27 -10 -16 3 -62 9
-104 12 -189 16 -330 -87 -357 -261 -25 -156 54 -304 185 -349 62 -21 77 -20
28 3 -46 21 -98 69 -123 115 -12 23 -17 55 -17 121 0 82 3 95 31 145 36 64 97
115 157 131 40 11 139 8 246 -7 54 -8 62 2 54 70 -8 72 -31 95 -60 61z"/>
<path d="M3748 1231 c-10 -10 -18 -23 -18 -29 0 -7 -13 -12 -29 -12 -16 0 -36
-3 -44 -6 -11 -4 -17 2 -20 18 -2 13 -5 0 -6 -29 -1 -42 3 -54 18 -63 24 -12
121 -13 140 -1 19 12 27 106 11 126 -16 19 -31 18 -52 -4z"/>
<path d="M4668 1231 c-10 -10 -18 -23 -18 -29 0 -7 -13 -12 -29 -12 -16 0 -36
-3 -44 -6 -11 -4 -17 2 -20 18 -2 13 -5 0 -6 -29 -1 -42 3 -54 18 -63 24 -12
121 -13 140 -1 19 12 27 106 11 126 -16 19 -31 18 -52 -4z"/>
<path d="M508 1228 c-3 -9 160 -510 187 -570 11 -26 21 -22 31 13 8 26 -5 73
-81 300 -81 243 -91 269 -111 269 -12 0 -24 -5 -26 -12z"/>
<path d="M1107 1228 c-16 -12 -17 -41 -18 -351 0 -249 -4 -339 -12 -342 -7 -2
-26 -6 -44 -9 -27 -4 -32 -2 -36 17 -3 12 -4 -3 -3 -33 l1 -55 74 -3 c41 -2
78 1 82 5 4 4 9 181 10 393 3 377 3 385 -16 388 -11 1 -28 -3 -38 -10z"/>
<path d="M2366 1230 c11 -4 33 -23 48 -41 26 -31 28 -38 24 -110 -3 -67 -7
-83 -33 -120 -47 -66 -110 -94 -214 -94 -84 0 -85 0 -92 28 -5 19 -4 27 5 27
9 0 15 27 19 86 3 48 9 89 12 93 9 8 125 7 158 -2 15 -4 36 -22 47 -40 l20
-32 0 35 c0 46 -29 101 -60 117 -17 9 -60 12 -130 11 l-105 -3 -6 -40 c-4 -22
-10 -168 -14 -323 -6 -193 -11 -285 -19 -287 -6 -2 -25 -6 -43 -9 -31 -5 -32
-4 -36 32 -2 20 -4 4 -5 -36 l-2 -73 83 3 82 3 5 160 5 160 110 5 c126 6 185
27 234 86 57 70 70 205 28 285 -24 46 -84 89 -122 88 -19 0 -19 -1 1 -9z"/>
<path d="M5842 1227 c-6 -7 -15 -120 -22 -272 -6 -143 -13 -297 -16 -342 l-6
-81 -38 -4 -39 -3 -4 60 c-2 43 -4 32 -5 -37 l-2 -98 79 0 80 0 5 43 c3 23 7
123 10 222 3 99 9 258 12 353 l7 172 -25 0 c-14 0 -30 -6 -36 -13z"/>
<path d="M3355 1214 c51 -28 104 -86 122 -133 14 -34 18 -74 18 -156 -1 -146
-23 -205 -109 -291 -86 -85 -126 -96 -373 -103 l-192 -6 -4 45 c-2 26 -4 9 -5
-38 l-2 -84 238 4 c203 3 243 7 282 23 106 44 181 125 217 235 22 66 25 252 5
317 -28 94 -116 182 -197 198 l-30 6 30 -17z"/>
<path d="M2935 1178 c-2 -7 -9 -138 -15 -292 -11 -297 -10 -306 35 -306 20 0
23 6 29 63 3 34 9 154 12 266 l7 204 121 -5 c137 -6 178 -19 220 -69 37 -43
47 -71 57 -149 7 -61 7 -60 5 30 -2 84 -5 101 -31 148 -34 64 -72 97 -123 112
-55 15 -312 13 -317 -2z"/>
<path d="M972 1089 c-16 -35 -75 -175 -132 -311 l-103 -246 -46 -4 -47 -3 -99
305 c-54 168 -100 307 -102 309 -14 19 -24 -45 -37 -239 -27 -391 -25 -370
-49 -370 -52 0 -68 -11 -65 -44 l3 -31 77 -3 76 -3 6 63 c3 35 10 142 17 238
6 96 12 176 13 177 1 2 38 -105 80 -237 l78 -241 81 3 80 3 96 230 96 230 5
-170 5 -170 6 280 c4 154 3 284 -2 289 -5 6 -21 -17 -37 -55z"/>
<path d="M5528 1050 c27 -14 44 -31 48 -47 6 -22 -11 -462 -18 -468 -2 -1 -20
-5 -40 -8 -37 -6 -38 -5 -38 24 0 24 -4 29 -25 29 -14 0 -34 -9 -46 -21 -40
-40 -128 -50 -216 -24 -63 19 -85 44 -94 103 l-6 47 -2 -46 c-1 -40 -4 -48
-24 -53 -13 -3 -29 -17 -35 -30 -13 -29 -75 -42 -141 -31 -64 11 -85 33 -92
101 l-6 59 -2 -73 c-2 -137 33 -172 176 -172 92 0 126 14 133 55 l5 29 17 -26
c29 -44 92 -61 211 -56 68 2 110 8 121 17 10 9 16 10 16 2 0 -7 27 -11 79 -11
l79 0 6 38 c3 20 8 134 11 252 6 195 4 218 -12 250 -18 35 -62 63 -118 75 -25
6 -23 3 13 -15z"/>
<path d="M4408 1042 c-14 -14 -18 -61 -28 -302 -6 -157 -16 -303 -22 -325 -31
-123 -126 -155 -405 -136 -52 4 -52 4 -56 40 -2 23 -4 15 -5 -24 -1 -33 2 -66
7 -74 13 -20 83 -30 217 -31 181 0 251 27 296 113 18 35 23 69 29 207 5 91 13
246 19 344 7 131 7 183 -1 192 -15 18 -30 17 -51 -4z"/>
<path d="M3741 1041 c-17 -11 -29 -158 -30 -369 -1 -97 -4 -134 -13 -136 -7
-3 -27 -7 -45 -10 -31 -5 -32 -4 -36 32 -2 20 -4 4 -5 -36 l-2 -73 83 3 82 3
7 190 c15 426 15 400 -7 403 -11 1 -26 -2 -34 -7z"/>
<path d="M4661 1041 c-17 -11 -29 -158 -30 -369 -1 -97 -4 -134 -13 -136 -7
-3 -27 -7 -45 -10 -31 -5 -32 -4 -36 32 -2 20 -4 4 -5 -36 l-2 -73 83 3 82 3
7 190 c15 426 15 400 -7 403 -11 1 -26 -2 -34 -7z"/>
<path d="M5064 1042 c-6 -4 -13 -15 -17 -24 -5 -13 -21 -18 -73 -20 -64 -3
-68 -4 -75 -31 -4 -15 -9 -96 -11 -181 -3 -152 -3 -155 21 -180 32 -34 64 -36
52 -3 -6 16 1 274 8 305 1 1 26 2 57 2 83 0 94 9 94 80 0 56 -2 60 -22 60 -13
0 -28 -4 -34 -8z"/>
<path d="M5263 1020 c-23 -5 -52 -15 -65 -22 -13 -7 -27 -11 -31 -10 -5 1 -7
-15 -5 -35 3 -33 7 -38 30 -41 15 -2 50 4 79 12 70 21 168 21 197 0 31 -21 38
-12 26 34 -16 64 -101 87 -231 62z"/>
<path d="M4110 1011 c-103 -33 -166 -110 -177 -216 -9 -85 30 -165 98 -200 43
-23 71 -19 33 4 -21 13 -38 36 -49 66 -24 62 -9 135 40 192 47 56 89 73 174
73 l70 0 3 -62 c3 -57 4 -53 8 31 3 51 2 98 -2 105 -9 13 -161 19 -198 7z"/>
<path d="M1234 825 c1 -109 4 -126 30 -183 36 -77 104 -142 184 -173 86 -34
362 -40 412 -9 9 5 15 32 18 74 4 66 4 66 -22 66 -20 0 -32 -8 -44 -30 -22
-39 -43 -44 -177 -45 -129 0 -191 17 -275 74 -79 55 -111 120 -121 249 l-7 97
2 -120z"/>
<path d="M5445 825 c-16 -8 -70 -26 -118 -41 -105 -32 -147 -65 -147 -116 1
-48 49 -98 97 -98 15 0 14 2 -5 16 -29 20 -28 40 4 69 23 21 55 33 187 71 15
5 17 -3 17 -62 0 -101 6 -74 14 59 7 127 7 127 -49 102z"/>
<path d="M3841 724 c-2 -139 52 -237 150 -269 64 -22 209 -18 257 7 30 15 32
15 33 0 2 -28 17 70 18 116 1 23 -3 42 -7 42 -5 0 -27 -17 -49 -39 -79 -74
-210 -81 -313 -16 -46 29 -72 81 -80 165 l-7 65 -2 -71z"/>
</g>
</svg>
